# xmcd
#
# Track frame offsets:
#	150
#	14875
#	30475
#	52363
#	72838
#	83625
#	107263
#	127725
#	149775
#	170463
#	186100
#
# Disc length: 2706 seconds
#
# Revision: 1
# Processed by: cddbd v1.4PL0 Copyright (c) Steve Scherf et al.
# Submitted via: audiograbber 1.82.01
#
DISCID=970a900b
DTITLE=CIA - ah, yeah!
DYEAR=1993
DGENRE=Blues
TTITLE0=A night Like No One Else
TTITLE1=A little Twist Of Fate
TTITLE2=Long Lost Friend
TTITLE3=Mama Roll Over
TTITLE4=Gotta Get It While You Can
TTITLE5=She`s Got What It Takes
TTITLE6=More Than A Handful
TTITLE7=Not Giving Up On Her
TTITLE8=How Much Of A Fool
TTITLE9=As The Crow Flies
TTITLE10=Cheating On Me
EXTD=
EXTT0=
EXTT1=
EXTT2=
EXTT3=
EXTT4=
EXTT5=
EXTT6=
EXTT7=
EXTT8=
EXTT9=
EXTT10=
PLAYORDER=
